<svg xmlns="http://www.w3.org/2000/svg" viewBox="0 0 946 264" width="946" height="264" shape-rendering="crispEdges" role="img" aria-label="opentree">
  <rect x="0" y="0" width="946" height="264" rx="26.4" fill="#0d0f14"/>
  <rect x="44.0" y="88.0" width="22" height="22" fill="#8a8a8a"/>
  <rect x="44.0" y="110.0" width="22" height="22" fill="#8a8a8a"/>
  <rect x="66.0" y="88.0" width="22" height="22" fill="#8a8a8a"/>
  <rect x="88.0" y="88.0" width="22" height="22" fill="#8a8a8a"/>
  <rect x="110.0" y="88.0" width="22" height="22" fill="#8a8a8a"/>
  <rect x="110.0" y="110.0" width="22" height="22" fill="#8a8a8a"/>
  <rect x="154.0" y="88.0" width="22" height="22" fill="#8a8a8a"/>
  <rect x="154.0" y="110.0" width="22" height="22" fill="#8a8a8a"/>
  <rect x="176.0" y="88.0" width="22" height="22" fill="#8a8a8a"/>
  <rect x="198.0" y="88.0" width="22" height="22" fill="#8a8a8a"/>
  <rect x="220.0" y="88.0" width="22" height="22" fill="#8a8a8a"/>
  <rect x="220.0" y="110.0" width="22" height="22" fill="#8a8a8a"/>
  <rect x="264.0" y="88.0" width="22" height="22" fill="#8a8a8a"/>
  <rect x="264.0" y="110.0" width="22" height="22" fill="#8a8a8a"/>
  <rect x="286.0" y="88.0" width="22" height="22" fill="#8a8a8a"/>
  <rect x="308.0" y="88.0" width="22" height="22" fill="#8a8a8a"/>
  <rect x="330.0" y="88.0" width="22" height="22" fill="#8a8a8a"/>
  <rect x="330.0" y="110.0" width="22" height="22" fill="#8a8a8a"/>
  <rect x="374.0" y="88.0" width="22" height="22" fill="#8a8a8a"/>
  <rect x="374.0" y="110.0" width="22" height="22" fill="#8a8a8a"/>
  <rect x="396.0" y="88.0" width="22" height="22" fill="#8a8a8a"/>
  <rect x="418.0" y="88.0" width="22" height="22" fill="#8a8a8a"/>
  <rect x="440.0" y="110.0" width="22" height="22" fill="#8a8a8a"/>
  <rect x="44.0" y="132.0" width="22" height="22" fill="#8a8a8a"/>
  <rect x="44.0" y="154.0" width="22" height="22" fill="#8a8a8a"/>
  <rect x="66.0" y="132.0" width="22" height="22" fill="#262626"/>
  <rect x="66.0" y="154.0" width="22" height="22" fill="#262626"/>
  <rect x="88.0" y="132.0" width="22" height="22" fill="#262626"/>
  <rect x="88.0" y="154.0" width="22" height="22" fill="#262626"/>
  <rect x="110.0" y="132.0" width="22" height="22" fill="#8a8a8a"/>
  <rect x="110.0" y="154.0" width="22" height="22" fill="#8a8a8a"/>
  <rect x="154.0" y="132.0" width="22" height="22" fill="#8a8a8a"/>
  <rect x="154.0" y="154.0" width="22" height="22" fill="#8a8a8a"/>
  <rect x="176.0" y="132.0" width="22" height="22" fill="#262626"/>
  <rect x="176.0" y="154.0" width="22" height="22" fill="#262626"/>
  <rect x="198.0" y="132.0" width="22" height="22" fill="#262626"/>
  <rect x="198.0" y="154.0" width="22" height="22" fill="#262626"/>
  <rect x="220.0" y="132.0" width="22" height="22" fill="#8a8a8a"/>
  <rect x="220.0" y="154.0" width="22" height="22" fill="#8a8a8a"/>
  <rect x="264.0" y="132.0" width="22" height="22" fill="#8a8a8a"/>
  <rect x="264.0" y="154.0" width="22" height="22" fill="#8a8a8a"/>
  <rect x="286.0" y="132.0" width="22" height="22" fill="#8a8a8a"/>
  <rect x="286.0" y="154.0" width="22" height="22" fill="#262626"/>
  <rect x="308.0" y="132.0" width="22" height="22" fill="#8a8a8a"/>
  <rect x="308.0" y="154.0" width="22" height="22" fill="#262626"/>
  <rect x="330.0" y="132.0" width="22" height="22" fill="#8a8a8a"/>
  <rect x="330.0" y="154.0" width="22" height="22" fill="#262626"/>
  <rect x="374.0" y="132.0" width="22" height="22" fill="#8a8a8a"/>
  <rect x="374.0" y="154.0" width="22" height="22" fill="#8a8a8a"/>
  <rect x="396.0" y="132.0" width="22" height="22" fill="#262626"/>
  <rect x="396.0" y="154.0" width="22" height="22" fill="#262626"/>
  <rect x="418.0" y="132.0" width="22" height="22" fill="#262626"/>
  <rect x="418.0" y="154.0" width="22" height="22" fill="#262626"/>
  <rect x="440.0" y="132.0" width="22" height="22" fill="#8a8a8a"/>
  <rect x="440.0" y="154.0" width="22" height="22" fill="#8a8a8a"/>
  <rect x="44.0" y="176.0" width="22" height="22" fill="#8a8a8a"/>
  <rect x="66.0" y="176.0" width="22" height="22" fill="#8a8a8a"/>
  <rect x="88.0" y="176.0" width="22" height="22" fill="#8a8a8a"/>
  <rect x="110.0" y="176.0" width="22" height="22" fill="#8a8a8a"/>
  <rect x="154.0" y="176.0" width="22" height="22" fill="#8a8a8a"/>
  <rect x="154.0" y="198.0" width="22" height="22" fill="#8a8a8a"/>
  <rect x="176.0" y="176.0" width="22" height="22" fill="#8a8a8a"/>
  <rect x="198.0" y="176.0" width="22" height="22" fill="#8a8a8a"/>
  <rect x="220.0" y="176.0" width="22" height="22" fill="#8a8a8a"/>
  <rect x="264.0" y="176.0" width="22" height="22" fill="#8a8a8a"/>
  <rect x="286.0" y="176.0" width="22" height="22" fill="#8a8a8a"/>
  <rect x="308.0" y="176.0" width="22" height="22" fill="#8a8a8a"/>
  <rect x="330.0" y="176.0" width="22" height="22" fill="#8a8a8a"/>
  <rect x="374.0" y="176.0" width="22" height="22" fill="#8a8a8a"/>
  <rect x="396.0" y="176.0" width="22" height="22" fill="#262626"/>
  <rect x="418.0" y="176.0" width="22" height="22" fill="#262626"/>
  <rect x="440.0" y="176.0" width="22" height="22" fill="#8a8a8a"/>
  <rect x="506.0" y="66.0" width="22" height="22" fill="#f2f2f2"/>
  <rect x="484.0" y="88.0" width="22" height="22" fill="#f2f2f2"/>
  <rect x="506.0" y="88.0" width="22" height="22" fill="#f2f2f2"/>
  <rect x="506.0" y="110.0" width="22" height="22" fill="#f2f2f2"/>
  <rect x="528.0" y="88.0" width="22" height="22" fill="#f2f2f2"/>
  <rect x="550.0" y="88.0" width="22" height="22" fill="#f2f2f2"/>
  <rect x="594.0" y="88.0" width="22" height="22" fill="#f2f2f2"/>
  <rect x="594.0" y="110.0" width="22" height="22" fill="#f2f2f2"/>
  <rect x="616.0" y="88.0" width="22" height="22" fill="#f2f2f2"/>
  <rect x="638.0" y="88.0" width="22" height="22" fill="#f2f2f2"/>
  <rect x="660.0" y="110.0" width="22" height="22" fill="#f2f2f2"/>
  <rect x="704.0" y="88.0" width="22" height="22" fill="#f2f2f2"/>
  <rect x="704.0" y="110.0" width="22" height="22" fill="#f2f2f2"/>
  <rect x="726.0" y="88.0" width="22" height="22" fill="#f2f2f2"/>
  <rect x="748.0" y="88.0" width="22" height="22" fill="#f2f2f2"/>
  <rect x="770.0" y="88.0" width="22" height="22" fill="#f2f2f2"/>
  <rect x="770.0" y="110.0" width="22" height="22" fill="#f2f2f2"/>
  <rect x="814.0" y="88.0" width="22" height="22" fill="#f2f2f2"/>
  <rect x="814.0" y="110.0" width="22" height="22" fill="#f2f2f2"/>
  <rect x="836.0" y="88.0" width="22" height="22" fill="#f2f2f2"/>
  <rect x="858.0" y="88.0" width="22" height="22" fill="#f2f2f2"/>
  <rect x="880.0" y="88.0" width="22" height="22" fill="#f2f2f2"/>
  <rect x="880.0" y="110.0" width="22" height="22" fill="#f2f2f2"/>
  <rect x="484.0" y="132.0" width="22" height="22" fill="#444444"/>
  <rect x="484.0" y="154.0" width="22" height="22" fill="#444444"/>
  <rect x="506.0" y="132.0" width="22" height="22" fill="#f2f2f2"/>
  <rect x="506.0" y="154.0" width="22" height="22" fill="#f2f2f2"/>
  <rect x="528.0" y="132.0" width="22" height="22" fill="#444444"/>
  <rect x="528.0" y="154.0" width="22" height="22" fill="#444444"/>
  <rect x="550.0" y="132.0" width="22" height="22" fill="#444444"/>
  <rect x="550.0" y="154.0" width="22" height="22" fill="#444444"/>
  <rect x="594.0" y="132.0" width="22" height="22" fill="#f2f2f2"/>
  <rect x="594.0" y="154.0" width="22" height="22" fill="#f2f2f2"/>
  <rect x="616.0" y="132.0" width="22" height="22" fill="#f2f2f2"/>
  <rect x="616.0" y="154.0" width="22" height="22" fill="#444444"/>
  <rect x="638.0" y="132.0" width="22" height="22" fill="#f2f2f2"/>
  <rect x="638.0" y="154.0" width="22" height="22" fill="#444444"/>
  <rect x="660.0" y="132.0" width="22" height="22" fill="#f2f2f2"/>
  <rect x="660.0" y="154.0" width="22" height="22" fill="#444444"/>
  <rect x="704.0" y="132.0" width="22" height="22" fill="#f2f2f2"/>
  <rect x="704.0" y="154.0" width="22" height="22" fill="#f2f2f2"/>
  <rect x="726.0" y="132.0" width="22" height="22" fill="#f2f2f2"/>
  <rect x="726.0" y="154.0" width="22" height="22" fill="#444444"/>
  <rect x="748.0" y="132.0" width="22" height="22" fill="#f2f2f2"/>
  <rect x="748.0" y="154.0" width="22" height="22" fill="#444444"/>
  <rect x="770.0" y="132.0" width="22" height="22" fill="#f2f2f2"/>
  <rect x="770.0" y="154.0" width="22" height="22" fill="#444444"/>
  <rect x="814.0" y="132.0" width="22" height="22" fill="#f2f2f2"/>
  <rect x="814.0" y="154.0" width="22" height="22" fill="#f2f2f2"/>
  <rect x="836.0" y="132.0" width="22" height="22" fill="#f2f2f2"/>
  <rect x="836.0" y="154.0" width="22" height="22" fill="#444444"/>
  <rect x="858.0" y="132.0" width="22" height="22" fill="#f2f2f2"/>
  <rect x="858.0" y="154.0" width="22" height="22" fill="#444444"/>
  <rect x="880.0" y="132.0" width="22" height="22" fill="#f2f2f2"/>
  <rect x="880.0" y="154.0" width="22" height="22" fill="#444444"/>
  <rect x="484.0" y="176.0" width="22" height="22" fill="#444444"/>
  <rect x="484.0" y="198.0" width="22" height="22" fill="#444444"/>
  <rect x="506.0" y="176.0" width="22" height="22" fill="#f2f2f2"/>
  <rect x="528.0" y="176.0" width="22" height="22" fill="#f2f2f2"/>
  <rect x="550.0" y="176.0" width="22" height="22" fill="#f2f2f2"/>
  <rect x="594.0" y="176.0" width="22" height="22" fill="#f2f2f2"/>
  <rect x="704.0" y="176.0" width="22" height="22" fill="#f2f2f2"/>
  <rect x="726.0" y="176.0" width="22" height="22" fill="#f2f2f2"/>
  <rect x="748.0" y="176.0" width="22" height="22" fill="#f2f2f2"/>
  <rect x="770.0" y="176.0" width="22" height="22" fill="#f2f2f2"/>
  <rect x="814.0" y="176.0" width="22" height="22" fill="#f2f2f2"/>
  <rect x="836.0" y="176.0" width="22" height="22" fill="#f2f2f2"/>
  <rect x="858.0" y="176.0" width="22" height="22" fill="#f2f2f2"/>
  <rect x="880.0" y="176.0" width="22" height="22" fill="#f2f2f2"/>
</svg>
