<svg xmlns="http://www.w3.org/2000/svg" viewBox="0 0 672 672" width="672" height="672" shape-rendering="crispEdges" role="img" aria-label="opentree OT monogram">
  <rect x="0" y="0" width="672" height="672" rx="84" fill="#0d0f14"/>
  <rect x="140" y="210.0" width="28" height="28" fill="#eceef2"/>
  <rect x="168" y="210.0" width="28" height="28" fill="#eceef2"/>
  <rect x="196" y="210.0" width="28" height="28" fill="#eceef2"/>
  <rect x="224" y="210.0" width="28" height="28" fill="#eceef2"/>
  <rect x="252" y="210.0" width="28" height="28" fill="#eceef2"/>
  <rect x="112" y="238.0" width="28" height="28" fill="#eceef2"/>
  <rect x="140" y="238.0" width="28" height="28" fill="#eceef2"/>
  <rect x="168" y="238.0" width="28" height="28" fill="#eceef2"/>
  <rect x="196" y="238.0" width="28" height="28" fill="#eceef2"/>
  <rect x="224" y="238.0" width="28" height="28" fill="#eceef2"/>
  <rect x="252" y="238.0" width="28" height="28" fill="#eceef2"/>
  <rect x="280" y="238.0" width="28" height="28" fill="#eceef2"/>
  <rect x="112" y="266.0" width="28" height="28" fill="#eceef2"/>
  <rect x="140" y="266.0" width="28" height="28" fill="#eceef2"/>
  <rect x="252" y="266.0" width="28" height="28" fill="#eceef2"/>
  <rect x="280" y="266.0" width="28" height="28" fill="#eceef2"/>
  <rect x="112" y="294.0" width="28" height="28" fill="#eceef2"/>
  <rect x="140" y="294.0" width="28" height="28" fill="#eceef2"/>
  <rect x="252" y="294.0" width="28" height="28" fill="#eceef2"/>
  <rect x="280" y="294.0" width="28" height="28" fill="#eceef2"/>
  <rect x="112" y="322.0" width="28" height="28" fill="#eceef2"/>
  <rect x="140" y="322.0" width="28" height="28" fill="#eceef2"/>
  <rect x="252" y="322.0" width="28" height="28" fill="#eceef2"/>
  <rect x="280" y="322.0" width="28" height="28" fill="#eceef2"/>
  <rect x="112" y="350.0" width="28" height="28" fill="#eceef2"/>
  <rect x="140" y="350.0" width="28" height="28" fill="#eceef2"/>
  <rect x="252" y="350.0" width="28" height="28" fill="#eceef2"/>
  <rect x="280" y="350.0" width="28" height="28" fill="#eceef2"/>
  <rect x="112" y="378.0" width="28" height="28" fill="#eceef2"/>
  <rect x="140" y="378.0" width="28" height="28" fill="#eceef2"/>
  <rect x="252" y="378.0" width="28" height="28" fill="#eceef2"/>
  <rect x="280" y="378.0" width="28" height="28" fill="#eceef2"/>
  <rect x="112" y="406.0" width="28" height="28" fill="#eceef2"/>
  <rect x="140" y="406.0" width="28" height="28" fill="#eceef2"/>
  <rect x="168" y="406.0" width="28" height="28" fill="#eceef2"/>
  <rect x="196" y="406.0" width="28" height="28" fill="#eceef2"/>
  <rect x="224" y="406.0" width="28" height="28" fill="#eceef2"/>
  <rect x="252" y="406.0" width="28" height="28" fill="#eceef2"/>
  <rect x="280" y="406.0" width="28" height="28" fill="#eceef2"/>
  <rect x="140" y="434.0" width="28" height="28" fill="#eceef2"/>
  <rect x="168" y="434.0" width="28" height="28" fill="#eceef2"/>
  <rect x="196" y="434.0" width="28" height="28" fill="#eceef2"/>
  <rect x="224" y="434.0" width="28" height="28" fill="#eceef2"/>
  <rect x="252" y="434.0" width="28" height="28" fill="#eceef2"/>
  <rect x="364" y="210.0" width="28" height="28" fill="#F4A261"/>
  <rect x="392" y="210.0" width="28" height="28" fill="#F4A261"/>
  <rect x="420" y="210.0" width="28" height="28" fill="#F4A261"/>
  <rect x="448" y="210.0" width="28" height="28" fill="#F4A261"/>
  <rect x="476" y="210.0" width="28" height="28" fill="#F4A261"/>
  <rect x="504" y="210.0" width="28" height="28" fill="#F4A261"/>
  <rect x="532" y="210.0" width="28" height="28" fill="#F4A261"/>
  <rect x="364" y="238.0" width="28" height="28" fill="#F4A261"/>
  <rect x="392" y="238.0" width="28" height="28" fill="#F4A261"/>
  <rect x="420" y="238.0" width="28" height="28" fill="#F4A261"/>
  <rect x="448" y="238.0" width="28" height="28" fill="#F4A261"/>
  <rect x="476" y="238.0" width="28" height="28" fill="#F4A261"/>
  <rect x="504" y="238.0" width="28" height="28" fill="#F4A261"/>
  <rect x="532" y="238.0" width="28" height="28" fill="#F4A261"/>
  <rect x="420" y="266.0" width="28" height="28" fill="#F4A261"/>
  <rect x="448" y="266.0" width="28" height="28" fill="#F4A261"/>
  <rect x="476" y="266.0" width="28" height="28" fill="#F4A261"/>
  <rect x="420" y="294.0" width="28" height="28" fill="#F4A261"/>
  <rect x="448" y="294.0" width="28" height="28" fill="#F4A261"/>
  <rect x="476" y="294.0" width="28" height="28" fill="#F4A261"/>
  <rect x="420" y="322.0" width="28" height="28" fill="#F4A261"/>
  <rect x="448" y="322.0" width="28" height="28" fill="#F4A261"/>
  <rect x="476" y="322.0" width="28" height="28" fill="#F4A261"/>
  <rect x="420" y="350.0" width="28" height="28" fill="#F4A261"/>
  <rect x="448" y="350.0" width="28" height="28" fill="#F4A261"/>
  <rect x="476" y="350.0" width="28" height="28" fill="#F4A261"/>
  <rect x="420" y="378.0" width="28" height="28" fill="#F4A261"/>
  <rect x="448" y="378.0" width="28" height="28" fill="#F4A261"/>
  <rect x="476" y="378.0" width="28" height="28" fill="#F4A261"/>
  <rect x="420" y="406.0" width="28" height="28" fill="#F4A261"/>
  <rect x="448" y="406.0" width="28" height="28" fill="#F4A261"/>
  <rect x="476" y="406.0" width="28" height="28" fill="#F4A261"/>
  <rect x="420" y="434.0" width="28" height="28" fill="#F4A261"/>
  <rect x="448" y="434.0" width="28" height="28" fill="#F4A261"/>
  <rect x="476" y="434.0" width="28" height="28" fill="#F4A261"/>
</svg>
